%TF.GenerationSoftware,KiCad,Pcbnew,(6.0.11-0)*%
%TF.CreationDate,2023-03-02T13:46:00-08:00*%
%TF.ProjectId,KiCAD Part One ,4b694341-4420-4506-9172-74204f6e6520,rev?*%
%TF.SameCoordinates,Original*%
%TF.FileFunction,Legend,Top*%
%TF.FilePolarity,Positive*%
%FSLAX46Y46*%
G04 Gerber Fmt 4.6, Leading zero omitted, Abs format (unit mm)*
G04 Created by KiCad (PCBNEW (6.0.11-0)) date 2023-03-02 13:46:00*
%MOMM*%
%LPD*%
G01*
G04 APERTURE LIST*
%ADD10C,0.150000*%
%ADD11C,0.120000*%
G04 APERTURE END LIST*
D10*
%TO.C,D1*%
X173251904Y-113332380D02*
X173251904Y-112332380D01*
X173490000Y-112332380D01*
X173632857Y-112380000D01*
X173728095Y-112475238D01*
X173775714Y-112570476D01*
X173823333Y-112760952D01*
X173823333Y-112903809D01*
X173775714Y-113094285D01*
X173728095Y-113189523D01*
X173632857Y-113284761D01*
X173490000Y-113332380D01*
X173251904Y-113332380D01*
X174775714Y-113332380D02*
X174204285Y-113332380D01*
X174490000Y-113332380D02*
X174490000Y-112332380D01*
X174394761Y-112475238D01*
X174299523Y-112570476D01*
X174204285Y-112618095D01*
%TO.C,2.2kOhm1*%
X98076190Y-89527619D02*
X98123809Y-89480000D01*
X98219047Y-89432380D01*
X98457142Y-89432380D01*
X98552380Y-89480000D01*
X98600000Y-89527619D01*
X98647619Y-89622857D01*
X98647619Y-89718095D01*
X98600000Y-89860952D01*
X98028571Y-90432380D01*
X98647619Y-90432380D01*
X99076190Y-90337142D02*
X99123809Y-90384761D01*
X99076190Y-90432380D01*
X99028571Y-90384761D01*
X99076190Y-90337142D01*
X99076190Y-90432380D01*
X99504761Y-89527619D02*
X99552380Y-89480000D01*
X99647619Y-89432380D01*
X99885714Y-89432380D01*
X99980952Y-89480000D01*
X100028571Y-89527619D01*
X100076190Y-89622857D01*
X100076190Y-89718095D01*
X100028571Y-89860952D01*
X99457142Y-90432380D01*
X100076190Y-90432380D01*
X100504761Y-90432380D02*
X100504761Y-89432380D01*
X100600000Y-90051428D02*
X100885714Y-90432380D01*
X100885714Y-89765714D02*
X100504761Y-90146666D01*
X101504761Y-89432380D02*
X101695238Y-89432380D01*
X101790476Y-89480000D01*
X101885714Y-89575238D01*
X101933333Y-89765714D01*
X101933333Y-90099047D01*
X101885714Y-90289523D01*
X101790476Y-90384761D01*
X101695238Y-90432380D01*
X101504761Y-90432380D01*
X101409523Y-90384761D01*
X101314285Y-90289523D01*
X101266666Y-90099047D01*
X101266666Y-89765714D01*
X101314285Y-89575238D01*
X101409523Y-89480000D01*
X101504761Y-89432380D01*
X102361904Y-90432380D02*
X102361904Y-89432380D01*
X102790476Y-90432380D02*
X102790476Y-89908571D01*
X102742857Y-89813333D01*
X102647619Y-89765714D01*
X102504761Y-89765714D01*
X102409523Y-89813333D01*
X102361904Y-89860952D01*
X103266666Y-90432380D02*
X103266666Y-89765714D01*
X103266666Y-89860952D02*
X103314285Y-89813333D01*
X103409523Y-89765714D01*
X103552380Y-89765714D01*
X103647619Y-89813333D01*
X103695238Y-89908571D01*
X103695238Y-90432380D01*
X103695238Y-89908571D02*
X103742857Y-89813333D01*
X103838095Y-89765714D01*
X103980952Y-89765714D01*
X104076190Y-89813333D01*
X104123809Y-89908571D01*
X104123809Y-90432380D01*
X105123809Y-90432380D02*
X104552380Y-90432380D01*
X104838095Y-90432380D02*
X104838095Y-89432380D01*
X104742857Y-89575238D01*
X104647619Y-89670476D01*
X104552380Y-89718095D01*
%TO.C,V1*%
X93742380Y-116109523D02*
X94742380Y-115776190D01*
X93742380Y-115442857D01*
X94742380Y-114585714D02*
X94742380Y-115157142D01*
X94742380Y-114871428D02*
X93742380Y-114871428D01*
X93885238Y-114966666D01*
X93980476Y-115061904D01*
X94028095Y-115157142D01*
%TO.C,R1*%
X179332380Y-96686666D02*
X178856190Y-97020000D01*
X179332380Y-97258095D02*
X178332380Y-97258095D01*
X178332380Y-96877142D01*
X178380000Y-96781904D01*
X178427619Y-96734285D01*
X178522857Y-96686666D01*
X178665714Y-96686666D01*
X178760952Y-96734285D01*
X178808571Y-96781904D01*
X178856190Y-96877142D01*
X178856190Y-97258095D01*
X179332380Y-95734285D02*
X179332380Y-96305714D01*
X179332380Y-96020000D02*
X178332380Y-96020000D01*
X178475238Y-96115238D01*
X178570476Y-96210476D01*
X178618095Y-96305714D01*
%TO.C,C1*%
X135453333Y-113447142D02*
X135405714Y-113494761D01*
X135262857Y-113542380D01*
X135167619Y-113542380D01*
X135024761Y-113494761D01*
X134929523Y-113399523D01*
X134881904Y-113304285D01*
X134834285Y-113113809D01*
X134834285Y-112970952D01*
X134881904Y-112780476D01*
X134929523Y-112685238D01*
X135024761Y-112590000D01*
X135167619Y-112542380D01*
X135262857Y-112542380D01*
X135405714Y-112590000D01*
X135453333Y-112637619D01*
X136405714Y-113542380D02*
X135834285Y-113542380D01*
X136120000Y-113542380D02*
X136120000Y-112542380D01*
X136024761Y-112685238D01*
X135929523Y-112780476D01*
X135834285Y-112828095D01*
%TO.C,SW1*%
X127299166Y-83814761D02*
X127442023Y-83862380D01*
X127680119Y-83862380D01*
X127775357Y-83814761D01*
X127822976Y-83767142D01*
X127870595Y-83671904D01*
X127870595Y-83576666D01*
X127822976Y-83481428D01*
X127775357Y-83433809D01*
X127680119Y-83386190D01*
X127489642Y-83338571D01*
X127394404Y-83290952D01*
X127346785Y-83243333D01*
X127299166Y-83148095D01*
X127299166Y-83052857D01*
X127346785Y-82957619D01*
X127394404Y-82910000D01*
X127489642Y-82862380D01*
X127727738Y-82862380D01*
X127870595Y-82910000D01*
X128203928Y-82862380D02*
X128442023Y-83862380D01*
X128632500Y-83148095D01*
X128822976Y-83862380D01*
X129061071Y-82862380D01*
X129965833Y-83862380D02*
X129394404Y-83862380D01*
X129680119Y-83862380D02*
X129680119Y-82862380D01*
X129584880Y-83005238D01*
X129489642Y-83100476D01*
X129394404Y-83148095D01*
D11*
%TO.C,D1*%
X171430000Y-115295000D02*
X171430000Y-118385000D01*
X171430000Y-118384830D02*
G75*
G03*
X176980000Y-116839538I2560000J1544830D01*
G01*
X176980000Y-116840462D02*
G75*
G03*
X171430000Y-115295170I-2990000J462D01*
G01*
X176490000Y-116840000D02*
G75*
G03*
X176490000Y-116840000I-2500000J0D01*
G01*
%TO.C,2.2kOhm1*%
X93730000Y-83740000D02*
X93730000Y-88980000D01*
X109470000Y-88980000D02*
X109470000Y-83740000D01*
X93730000Y-88980000D02*
X109470000Y-88980000D01*
X109470000Y-83740000D02*
X93730000Y-83740000D01*
X110320000Y-86360000D02*
X109470000Y-86360000D01*
X92880000Y-86360000D02*
X93730000Y-86360000D01*
%TO.C,V1*%
X92590000Y-117750000D02*
X92590000Y-115800000D01*
X89090000Y-115300000D02*
X89590000Y-115300000D01*
X89090000Y-112850000D02*
X89090000Y-117750000D01*
X93200000Y-114000000D02*
X93400000Y-114000000D01*
X92590000Y-112850000D02*
X89090000Y-112850000D01*
X90590000Y-118360000D02*
X90590000Y-117750000D01*
X93200000Y-112240000D02*
X88480000Y-112240000D01*
X90590000Y-112240000D02*
X90590000Y-112850000D01*
X93200000Y-114800000D02*
X92590000Y-114800000D01*
X91890000Y-112240000D02*
X91890000Y-112850000D01*
X92590000Y-115800000D02*
X93200000Y-115800000D01*
X93300000Y-114000000D02*
X93300000Y-113700000D01*
X88480000Y-118360000D02*
X93200000Y-118360000D01*
X89090000Y-117750000D02*
X92590000Y-117750000D01*
X91890000Y-118360000D02*
X91890000Y-117750000D01*
X92590000Y-114800000D02*
X92590000Y-112850000D01*
X93500000Y-111940000D02*
X92250000Y-111940000D01*
X88480000Y-112240000D02*
X88480000Y-118360000D01*
X93400000Y-114000000D02*
X93400000Y-113700000D01*
X93500000Y-113190000D02*
X93500000Y-111940000D01*
X89590000Y-115400000D02*
X89090000Y-115400000D01*
X93400000Y-113700000D02*
X93200000Y-113700000D01*
X93200000Y-118360000D02*
X93200000Y-112240000D01*
X89590000Y-115200000D02*
X89590000Y-115400000D01*
X89090000Y-115200000D02*
X89590000Y-115200000D01*
%TO.C,R1*%
X177880000Y-88650000D02*
X172640000Y-88650000D01*
X177880000Y-104390000D02*
X177880000Y-88650000D01*
X175260000Y-105240000D02*
X175260000Y-104390000D01*
X172640000Y-88650000D02*
X172640000Y-104390000D01*
X172640000Y-104390000D02*
X177880000Y-104390000D01*
X175260000Y-87800000D02*
X175260000Y-88650000D01*
%TO.C,C1*%
X138240000Y-116840000D02*
G75*
G03*
X138240000Y-116840000I-2620000J0D01*
G01*
%TO.C,SW1*%
X121332500Y-84610000D02*
X121332500Y-83310000D01*
X135632500Y-85010000D02*
X135632500Y-90210000D01*
X133582500Y-90960000D02*
X123682500Y-90960000D01*
X121332500Y-83310000D02*
X122632500Y-83310000D01*
X121632500Y-90210000D02*
X121632500Y-85010000D01*
X123682500Y-84260000D02*
X133582500Y-84260000D01*
%TD*%
M02*
