%TF.GenerationSoftware,KiCad,Pcbnew,(6.0.11-0)*%
%TF.CreationDate,2023-03-02T14:01:40-08:00*%
%TF.ProjectId,KICAD Part Two,4b494341-4420-4506-9172-742054776f2e,rev?*%
%TF.SameCoordinates,Original*%
%TF.FileFunction,Copper,L1,Top*%
%TF.FilePolarity,Positive*%
%FSLAX46Y46*%
G04 Gerber Fmt 4.6, Leading zero omitted, Abs format (unit mm)*
G04 Created by KiCad (PCBNEW (6.0.11-0)) date 2023-03-02 14:01:40*
%MOMM*%
%LPD*%
G01*
G04 APERTURE LIST*
G04 Aperture macros list*
%AMRoundRect*
0 Rectangle with rounded corners*
0 $1 Rounding radius*
0 $2 $3 $4 $5 $6 $7 $8 $9 X,Y pos of 4 corners*
0 Add a 4 corners polygon primitive as box body*
4,1,4,$2,$3,$4,$5,$6,$7,$8,$9,$2,$3,0*
0 Add four circle primitives for the rounded corners*
1,1,$1+$1,$2,$3*
1,1,$1+$1,$4,$5*
1,1,$1+$1,$6,$7*
1,1,$1+$1,$8,$9*
0 Add four rect primitives between the rounded corners*
20,1,$1+$1,$2,$3,$4,$5,0*
20,1,$1+$1,$4,$5,$6,$7,0*
20,1,$1+$1,$6,$7,$8,$9,0*
20,1,$1+$1,$8,$9,$2,$3,0*%
G04 Aperture macros list end*
%TA.AperFunction,SMDPad,CuDef*%
%ADD10RoundRect,0.250000X0.337500X0.475000X-0.337500X0.475000X-0.337500X-0.475000X0.337500X-0.475000X0*%
%TD*%
%TA.AperFunction,SMDPad,CuDef*%
%ADD11RoundRect,0.250000X0.450000X-0.350000X0.450000X0.350000X-0.450000X0.350000X-0.450000X-0.350000X0*%
%TD*%
%TA.AperFunction,ComponentPad*%
%ADD12R,3.000000X3.000000*%
%TD*%
%TA.AperFunction,ComponentPad*%
%ADD13C,3.000000*%
%TD*%
%TA.AperFunction,SMDPad,CuDef*%
%ADD14RoundRect,0.250001X-0.462499X-0.624999X0.462499X-0.624999X0.462499X0.624999X-0.462499X0.624999X0*%
%TD*%
%TA.AperFunction,SMDPad,CuDef*%
%ADD15RoundRect,0.250000X0.350000X0.450000X-0.350000X0.450000X-0.350000X-0.450000X0.350000X-0.450000X0*%
%TD*%
%TA.AperFunction,SMDPad,CuDef*%
%ADD16RoundRect,0.250000X0.537500X0.425000X-0.537500X0.425000X-0.537500X-0.425000X0.537500X-0.425000X0*%
%TD*%
%TA.AperFunction,SMDPad,CuDef*%
%ADD17RoundRect,0.250000X-0.350000X-0.450000X0.350000X-0.450000X0.350000X0.450000X-0.350000X0.450000X0*%
%TD*%
%TA.AperFunction,SMDPad,CuDef*%
%ADD18RoundRect,0.150000X-0.825000X-0.150000X0.825000X-0.150000X0.825000X0.150000X-0.825000X0.150000X0*%
%TD*%
%TA.AperFunction,SMDPad,CuDef*%
%ADD19R,2.290000X3.000000*%
%TD*%
%TA.AperFunction,SMDPad,CuDef*%
%ADD20RoundRect,0.250001X0.624999X-0.462499X0.624999X0.462499X-0.624999X0.462499X-0.624999X-0.462499X0*%
%TD*%
%TA.AperFunction,Conductor*%
%ADD21C,0.250000*%
%TD*%
G04 APERTURE END LIST*
D10*
%TO.P,C2,1*%
%TO.N,Net-(C2-Pad1)*%
X191537500Y-109220000D03*
%TO.P,C2,2*%
%TO.N,GND*%
X189462500Y-109220000D03*
%TD*%
D11*
%TO.P,R3,1*%
%TO.N,Net-(R3-Pad1)*%
X228600000Y-102600000D03*
%TO.P,R3,2*%
%TO.N,Net-(R4-Pad1)*%
X228600000Y-100600000D03*
%TD*%
D12*
%TO.P,J1,1,Pin_1*%
%TO.N,+9V*%
X190500000Y-83820000D03*
D13*
%TO.P,J1,2,Pin_2*%
%TO.N,GND*%
X185420000Y-83820000D03*
%TD*%
D14*
%TO.P,D2,1,K*%
%TO.N,GND*%
X183932500Y-126200000D03*
%TO.P,D2,2,A*%
%TO.N,Net-(D2-Pad2)*%
X186907500Y-126200000D03*
%TD*%
D15*
%TO.P,R4,1*%
%TO.N,Net-(R4-Pad1)*%
X228725000Y-126335000D03*
%TO.P,R4,2*%
%TO.N,Net-(D2-Pad2)*%
X226725000Y-126335000D03*
%TD*%
D16*
%TO.P,C1,1*%
%TO.N,Net-(C1-Pad1)*%
X187317500Y-116830000D03*
%TO.P,C1,2*%
%TO.N,GND*%
X184442500Y-116830000D03*
%TD*%
D17*
%TO.P,R1,1*%
%TO.N,+9V*%
X210905872Y-85110000D03*
%TO.P,R1,2*%
%TO.N,Net-(R2-Pad1)*%
X212905872Y-85110000D03*
%TD*%
D18*
%TO.P,U1,1,GND*%
%TO.N,GND*%
X184130000Y-97340000D03*
%TO.P,U1,2,TR*%
%TO.N,unconnected-(U1-Pad2)*%
X184130000Y-98610000D03*
%TO.P,U1,3,Q*%
%TO.N,unconnected-(U1-Pad3)*%
X184130000Y-99880000D03*
%TO.P,U1,4,R*%
%TO.N,unconnected-(U1-Pad4)*%
X184130000Y-101150000D03*
%TO.P,U1,5,CV*%
%TO.N,Net-(C2-Pad1)*%
X189080000Y-101150000D03*
%TO.P,U1,6,THR*%
%TO.N,unconnected-(U1-Pad6)*%
X189080000Y-99880000D03*
%TO.P,U1,7,DIS*%
%TO.N,unconnected-(U1-Pad7)*%
X189080000Y-98610000D03*
%TO.P,U1,8,VCC*%
%TO.N,+9V*%
X189080000Y-97340000D03*
D19*
%TO.P,U1,9*%
%TO.N,N/C*%
X186605000Y-99245000D03*
%TD*%
D20*
%TO.P,D1,1,K*%
%TO.N,Net-(R3-Pad1)*%
X228600000Y-87847500D03*
%TO.P,D1,2,A*%
%TO.N,+9V*%
X228600000Y-84872500D03*
%TD*%
D15*
%TO.P,R2,1*%
%TO.N,Net-(R2-Pad1)*%
X210510000Y-117020000D03*
%TO.P,R2,2*%
%TO.N,Net-(C1-Pad1)*%
X208510000Y-117020000D03*
%TD*%
D21*
%TO.N,+9V*%
X190500000Y-83820000D02*
X209615872Y-83820000D01*
X209615872Y-83820000D02*
X210905872Y-85110000D01*
%TO.N,GND*%
X182830000Y-115217500D02*
X188827500Y-109220000D01*
X188827500Y-109220000D02*
X189462500Y-109220000D01*
%TO.N,Net-(C2-Pad1)*%
X189080000Y-101150000D02*
X191537500Y-103607500D01*
X191537500Y-103607500D02*
X191537500Y-109220000D01*
%TO.N,+9V*%
X190500000Y-83820000D02*
X190500000Y-95920000D01*
X190500000Y-95920000D02*
X189080000Y-97340000D01*
%TO.N,GND*%
X185420000Y-83820000D02*
X185420000Y-96050000D01*
X185420000Y-96050000D02*
X184130000Y-97340000D01*
X184442500Y-116830000D02*
X182830000Y-115217500D01*
X182830000Y-115217500D02*
X182830000Y-98263249D01*
X183753249Y-97340000D02*
X184130000Y-97340000D01*
X182830000Y-98263249D02*
X183753249Y-97340000D01*
X183932500Y-126200000D02*
X183932500Y-117340000D01*
X183932500Y-117340000D02*
X184442500Y-116830000D01*
%TO.N,Net-(C1-Pad1)*%
X187317500Y-116830000D02*
X208320000Y-116830000D01*
X208320000Y-116830000D02*
X208510000Y-117020000D01*
%TO.N,Net-(R2-Pad1)*%
X212905872Y-85110000D02*
X212905872Y-114624128D01*
X212905872Y-114624128D02*
X210510000Y-117020000D01*
%TO.N,+9V*%
X228600000Y-84872500D02*
X227812500Y-84085000D01*
X227812500Y-84085000D02*
X211930872Y-84085000D01*
X211930872Y-84085000D02*
X210905872Y-85110000D01*
%TO.N,Net-(R3-Pad1)*%
X228600000Y-102600000D02*
X227575000Y-101575000D01*
X227575000Y-101575000D02*
X227575000Y-88872500D01*
X227575000Y-88872500D02*
X228600000Y-87847500D01*
%TO.N,Net-(R4-Pad1)*%
X228725000Y-126335000D02*
X229625000Y-125435000D01*
X229625000Y-125435000D02*
X229625000Y-101625000D01*
X229625000Y-101625000D02*
X228600000Y-100600000D01*
%TO.N,Net-(D2-Pad2)*%
X186907500Y-126200000D02*
X187042500Y-126335000D01*
X187042500Y-126335000D02*
X226725000Y-126335000D01*
%TD*%
M02*
